<svg width="1280" height="872" fill="none" xmlns="http://www.w3.org/2000/svg"><g style="mix-blend-mode:hard-light" opacity=".25" filter="url('#filter0_d_9002_2425')"><path d="M840.076 776.235c-97.047 59.454-224 28-286 56-62 27.999-130.718-6.091-202-44-67.823-36.069-82-92-144-134s-42-254-42-366 320-172 426-208 284 54 340 116 140.004 314 88.004 350c-52.004 36-82.747 170.418-180.004 230Z" fill="#81BB43"/><g filter="url('#filter1_df_9002_2425')"><path d="M857.83 361.976C861.106 349.883 884.403 344 884.403 344s3.855 12.109 0 17.976l-4.69 4.689s2.886 9.042 4.69 14.85c2.176 7.008 8.974 11.529 5.471 17.976-3.139 5.777-10.596 2.026-15.632 6.253-4.022 3.376-6.195 5.947-7.815 10.942-4.103 12.648 20.232 15.813 17.976 28.918-.789 4.581-1.767 7.326-4.69 10.941-3.784 4.682-10.136 2.686-13.286 7.816-3.514 5.722 2.793 11.088 0 17.195-2.067 4.518-4.19 7.084-8.597 9.378-5.956 3.102-12.678 4.969-17.195 0-4.106-4.517-2.204-9.938 0-15.631 2.032-5.248 8.014-5.482 9.379-10.942.74-2.961 0-7.816 0-7.816s-7.45-5.654-9.379-10.941c-1.883-5.162 0-14.069 0-14.069s5.347-9.028 3.908-14.849c-1.35-5.464-10.903-5.525-9.379-10.942 1.192-4.238 9.379-6.253 9.379-6.253l21.884-11.723s-11.374-15.544-8.597-25.792Z" fill="url('#paint0_linear_9002_2425')"/></g><g filter="url('#filter2_df_9002_2425')"><path d="M421.532 563.178c6.682 10.598-4.759 31.728-4.759 31.728s-11.522-5.36-13.23-12.169l-.277-6.626s-8.609-3.998-14.104-6.602c-6.632-3.142-14.561-1.198-16.935-8.142-2.126-6.221 5.682-9.17 5.98-15.738.238-5.245-.183-8.585-2.762-13.159-6.532-11.583-25.336 4.186-33.454-6.346-2.838-3.682-4.196-6.26-4.879-10.859-.883-5.954 4.886-9.278 3.243-15.07-1.833-6.46-10.053-5.45-12.656-11.64-1.926-4.58-2.377-7.88-1.083-12.677 1.749-6.483 4.925-12.694 11.64-12.655 6.104.035 8.807 5.106 11.505 10.582 2.488 5.048-1.39 9.609 1.704 14.31 1.679 2.549 5.753 5.291 5.753 5.291s9.205-1.655 14.402.504c5.074 2.108 10.355 9.524 10.355 9.524s3.025 10.047 8.284 12.929c4.935 2.705 11.447-4.285 14.403.504 2.312 3.746-1.747 11.136-1.747 11.136l-6.186 24.043s19.14 2.152 24.803 11.132Z" fill="#86C23D"/></g><g filter="url('#filter3_df_9002_2425')"><path d="M208.289 538.896c-2.532-24.158 6.139-61.896 6.139-61.896s4.044 40.028 19.122 58.969c3.711 4.662 6.875 6.342 10.499 11.071 6.973 9.099 12.79 26.422 12.79 26.422l16.958 4.947c6.653 5.562 2.505 13.826 7.54 20.887 7.485 10.496 20.48 6.716 28.332 16.941 9.233 12.023 16.771 25.633 7.986 37.987-10.182 14.318-28.781 4.021-44.891-2.99-18.668-8.124-24.303-21.075-35.872-37.828-17.711-25.647-25.353-43.511-28.603-74.51Z" fill="url('#paint1_linear_9002_2425')"/></g><g filter="url('#filter4_df_9002_2425')"><path d="M728.127 227.816C706.58 231.512 676 248.225 676 248.225s35.664-6.255 55.749 2.19c4.944 2.079 7.171 4.41 12.152 6.397 9.583 3.822 26.009 4.639 26.009 4.639l8.42 13.485c6.44 4.408 12.589-1.2 19.933 1.441 10.918 3.925 10.812 16.105 21.584 20.415 12.667 5.068 26.296 8.28 34.857-2.343 9.922-12.312-3.533-25.914-13.535-38.162-11.589-14.192-24.183-15.917-41.517-21.856-26.537-9.091-43.877-11.356-71.525-6.615Z" fill="#3AAF44"/></g><g filter="url('#filter5_df_9002_2425')"><path d="M848.22 606.019c6.868-6.425 6.853-15.809 16-18 5.747-1.377 15 2 15 2s3.011-9.763 5-16c4.501-14.119 9.301-21.429 12-36 3.555-19.2-5.702-31.325 0-50 4.186-13.714 3.678-32.699 18-32 13.955.68 14 18 16 32s0 50 0 50c-6 8-22 28-34 36-9.6 6.4-4 37.333 0 52 0 0-7.383-.803-12 0-23.606 4.103-7.723 37.425-20 58-5.444 9.122-8.773 14.214-16 22-9.461 10.192-14.378 19.205-28 22-6.121 1.255-16 0-16 0s-19.715 31.251-40 40c-8.872 3.826-24 6-24 6l-38 14-18-14c.559-10.406 26-6 26-6l30-10 12-12 22-18 30-12 32-24v-28h-32l-30 28-34 24v-10s-26.019.412-38 10c-13.934 11.149-18 42-18 42l-32 30h-24c-10.529-2.625-24-14-24-14s-9.494-22.575 0-28c9.098-5.199 24 12 24 12l24-12s-2.978-11.632 0-18l16-12 10-24s-4.961-25.779 6-28c10.298-2.088 18 20 18 20h18s9.237-17.517 20-20h12s20.713 5.364 32 0c11.019-5.237 11.347-15.399 20-24l16-14s18.186-10.821 28-20Z" fill="url('#paint2_linear_9002_2425')"/></g><g filter="url('#filter6_df_9002_2425')"><path d="M402.899 259.765c-8.369 4.292-10.931 13.319-20.328 12.914-5.904-.254-13.874-6.042-13.874-6.042s-5.576 8.561-9.201 14.012c-8.206 12.34-14.829 18.05-21.425 31.321-8.691 17.485-3.12 31.686-13.731 48.077-7.791 12.037-12.517 30.432-26.095 25.827-13.232-4.487-8.519-21.152-6.598-35.163 1.922-14.011 13.731-48.078 13.731-48.078 7.966-6.045 28.843-20.882 42.579-25.279 10.988-3.518 14.098-34.8 14.28-50.001 0 0 6.879 2.799 11.538 3.295 23.825 2.537 17.704-33.866 35.159-50.278 7.74-7.277 12.339-11.258 21.426-16.76 11.896-7.202 19.099-14.519 32.965-13.465 6.231.473 15.385 4.393 15.385 4.393s27.539-24.636 49.447-27.477c9.581-1.243 24.725.821 24.725.821l40.384-3.026 13.463 18.404c-3.396 9.852-26.648-1.37-26.648-1.37l-31.593 1.377-14.834 8.243-26.097 11.267-32.142 3.3-37.36 14.29-7.69 26.923 30.77 8.788 36.536-18.685 39.284-13.741-2.747 9.616s25.132 6.748 39.286.82c16.459-6.895 28.841-35.443 28.841-35.443l39.008-20.059 23.078 6.591c9.403 5.415 19.233 20.052 19.233 20.052s2.929 24.315-7.69 26.924c-10.176 2.501-19.782-18.129-19.782-18.129l-26.372 4.948s-.332 12.002-4.943 17.308l-18.681 7.144-16.206 20.332s-2.31 26.149-13.458 25.275c-10.476-.821-11.816-24.174-11.816-24.174l-17.308-4.943s-13.692 14.307-24.723 13.739l-11.539-3.295s-18.444-10.846-30.77-8.788c-12.033 2.01-15.14 11.69-25.822 17.585l-19.229 9.068s-20.459 5.41-32.416 11.542Z" fill="url('#paint3_linear_9002_2425')"/></g><g filter="url('#filter7_df_9002_2425')"><path d="M382 741v-18s-39.716-19.065-28-30c7.994-7.461 17.095-.802 28 0 21.545 1.583 34.448 2.813 54 12 11.765 5.528 28 18 28 18l24 18h18s14.028-3.205 22 0c10.3 4.14 18 22 18 22s4.971 13.029 0 18c-4.971 4.97-18 0-18 0h-54s3.009 11.647 0 18c-6.353 13.411-38 0-38 0l-18-10c-5.734-8.38 0-26 0-26s-15.88 4.681-24 0c-8.479-4.887-12-22-12-22Z" fill="url('#paint4_linear_9002_2425')"/></g><g filter="url('#filter8_df_9002_2425')"><path d="M541.486 655.496c11.163 4.216 22.529 8.829 30.556 0 7.297-8.027 0-27.778 0-27.778s14.413-3.786 22.222 0c10.913 5.291 2.197 24.553 13.889 27.778 14.068 3.881 11.197-23.037 25-27.778 9.233-3.172 25 0 25 0s19.584 8.123 25 0c3.61-5.416 0-16.667 0-16.667l30.555-16.666h19.445l30.555-22.223h13.889s29.717-2.512 36.111-16.666c4.019-8.898 7.707-19.006 0-25-5.994-4.662-12.037-1.673-19.444 0-15.039 3.396-15.815 20.482-30.556 25-11.409 3.497-19.505-4.502-30.555 0-9.262 3.773-19.445 16.666-19.445 16.666h-13.889c-10.368 3.191-16.666 22.223-16.666 22.223l-25-22.223h-25c-5.766 6.487 5.765 15.736 0 22.223-6.487 7.297-25 0-25 0h-36.111c-13.156 3.42-30.556 16.666-30.556 16.666s-18.579-5.749-27.778 0c-17.356 10.848 8.63 37.213 27.778 44.445Z" fill="#86C23D"/></g><g filter="url('#filter9_df_9002_2425')"><path d="M763.975 349.05c-7.776-9.05-15.54-18.547-26.817-14.644-10.251 3.547-13.313 24.379-13.313 24.379s-14.465-3.585-19.504-10.651c-7.042-9.874 9.839-22.602 1.124-31.036-10.488-10.149-20.868 14.851-35.255 12.397-9.624-1.642-26.627-49.995-26.627-49.995s-13.295-4.534-21.942 0c-5.764 3.023-11.29 26.844-11.29 26.844l-26.817 13.797-17.066-9.319L529 315.68l-12.19-6.656s-27.285-12.039-39.681-2.68c-7.792 5.882-15.873 12.987-11.982 21.941 3.026 6.964 9.763 7.237 17.065 9.319 14.827 4.228 23.697-10.396 38.8-7.296 11.689 2.399 14.96 13.3 26.817 14.645 9.938 1.127 25.054-5.308 25.054-5.308l12.189 6.656c10.629 2.17 25.279-11.515 25.279-11.515L632 328.285l11.583 30.465c-5.792-24.984 2.482 2.93 10.651 0 9.19-3.295 21.941 11.983 21.941 11.983l31.693 17.307c13.185 3.303 34.806.018 34.806.018s13.55 13.95 24.379 13.313c20.433-1.202 10.261-36.796-3.078-52.321Z" fill="#86C23D"/></g><g filter="url('#filter10_df_9002_2425')"><path d="M645.03 399.835c17.729 11.454 13.943 28.844 16.914 48.572 2.376 15.783 0 40.801 0 40.801s-5.024 22.708-16.914 23.315c-12.365.631-19.027-23.315-19.027-23.315-15.852-4.249-21.443 13.276-33.826 23.315-17.534 14.215-19.41 50.687-40.169 40.801-19.059-9.077 14.747-36.181 0-50.516-20.826-20.242-67.653 34.973-67.653 34.973s0 25.257-19.027 0c-19.028-25.258 19.027-48.573 19.027-48.573v-56.344s16.552-38.36 40.169-46.63c25.272-8.849 40.725 11.289 67.653 13.601 20.551 1.764 35.968-10.91 52.853 0Z" fill="url('#paint5_radial_9002_2425')"/></g><path d="M947 738.574h10.684l11.355 10.46-2.514 13.83-6.831 6.948-8.71-1.996-12.95-20.647 8.966-8.595Z" fill="#7BE34A" fill-opacity=".3"/><path d="M957.684 754 947 738.574M957.684 754l11.355-4.966M957.684 754l-6.7 13.816M947 738.574h10.684l11.355 10.46M947 738.574l-8.966 8.595 12.95 20.647m18.055-18.782-2.514 13.83-6.831 6.948-8.71-1.996" stroke="#7BE34A"/><path d="M1103 665.273 1117.45 646l33.73 9.636v19.273l4.82 8.833-3.61 4.819-3.62 4.818h-28.1l-17.67-18.47v-9.636Z" fill="#7BE34A" fill-opacity=".3"/><path d="M1103 665.273 1117.45 646M1103 665.273v9.636l17.67 18.47h28.1M1103 665.273l20.88 21.682 24.89 6.424M1117.45 646l33.73 9.636v19.273l4.82 8.833-3.61 4.819M1117.45 646l28.11 25.697 6.83 16.864m-3.62 4.818 3.62-4.818" stroke="#7BE34A"/><path d="m173 756.091 6.818-9.091 15.909 4.545v9.091l2.273 4.167-1.705 2.273-1.704 2.272h-13.258L173 760.636v-4.545Z" fill="#7BE34A" fill-opacity=".3"/><path d="m173 756.091 6.818-9.091M173 756.091v4.545l8.333 8.712h13.258M173 756.091l9.848 10.227 11.743 3.03M179.818 747l15.909 4.545v9.091l2.273 4.167-1.705 2.273M179.818 747l13.258 12.121 3.219 7.955m-1.704 2.272 1.704-2.272" stroke="#7BE34A"/><path d="m1145 215.632 6.63-9.579 5.16-20.632 5.53-2.21 2.76-1.106 2.76-1.105 23.58 11.789 9.58 25.053-2.21 10.316-24.32 14.737-29.47-27.263Z" fill="#7BE34A" fill-opacity=".3"/><path d="m1151.63 206.053-6.63 9.579 29.47 27.263m-22.84-36.842 5.16-20.632 5.53-2.21m-10.69 22.842L1159 209m15.47 33.895 24.32-14.737m-24.32 14.737L1159 209m39.79 19.158 2.21-10.316-9.58-25.053L1167.84 181l-2.76 1.105m33.71 46.053-14-29.474-19.71-16.579M1159 209l3.32-25.789m0 0 2.76-1.106" stroke="#7BE34A"/><path d="m84.255 296.426.745 9.68-8.936 15.639-16.383.744L50 316.532v-10.426L70.106 286l14.15 10.426Z" fill="#7BE34A" fill-opacity=".3"/><path d="m84.255 296.426-18.617 10.425 10.426 14.894m8.191-25.319.745 9.68-8.936 15.639m8.191-25.319L70.106 286 50 306.106v10.426l9.68 5.957 16.384-.744" stroke="#7BE34A"/></g><defs><filter id="filter0_d_9002_2425" x="-25" y="-21" width="1330" height="910" filterUnits="userSpaceOnUse" color-interpolation-filters="sRGB"><feFlood flood-opacity="0" result="BackgroundImageFix"/><feColorMatrix in="SourceAlpha" values="0 0 0 0 0 0 0 0 0 0 0 0 0 0 0 0 0 0 127 0" result="hardAlpha"/><feOffset dy="4"/><feGaussianBlur stdDeviation="12.5"/><feComposite in2="hardAlpha" operator="out"/><feColorMatrix values="0 0 0 0 0.368627 0 0 0 0 0.92549 0 0 0 0 0.211765 0 0 0 1 0"/><feBlend in2="BackgroundImageFix" result="effect1_dropShadow_9002_2425"/><feBlend in="SourceGraphic" in2="effect1_dropShadow_9002_2425" result="shape"/></filter><filter id="filter1_df_9002_2425" x="785" y="298" width="155.859" height="250" filterUnits="userSpaceOnUse" color-interpolation-filters="sRGB"><feFlood flood-opacity="0" result="BackgroundImageFix"/><feColorMatrix in="SourceAlpha" values="0 0 0 0 0 0 0 0 0 0 0 0 0 0 0 0 0 0 127 0" result="hardAlpha"/><feOffset dy="4"/><feGaussianBlur stdDeviation="25"/><feComposite in2="hardAlpha" operator="out"/><feColorMatrix values="0 0 0 0 0 0 0 0 0 0 0 0 0 0 0 0 0 0 0.25 0"/><feBlend in2="BackgroundImageFix" result="effect1_dropShadow_9002_2425"/><feBlend in="SourceGraphic" in2="effect1_dropShadow_9002_2425" result="shape"/><feGaussianBlur stdDeviation="2.5" result="effect2_foregroundBlur_9002_2425"/></filter><filter id="filter2_df_9002_2425" x="275.882" y="417.223" width="197.745" height="231.683" filterUnits="userSpaceOnUse" color-interpolation-filters="sRGB"><feFlood flood-opacity="0" result="BackgroundImageFix"/><feColorMatrix in="SourceAlpha" values="0 0 0 0 0 0 0 0 0 0 0 0 0 0 0 0 0 0 127 0" result="hardAlpha"/><feOffset dy="4"/><feGaussianBlur stdDeviation="25"/><feComposite in2="hardAlpha" operator="out"/><feColorMatrix values="0 0 0 0 0 0 0 0 0 0 0 0 0 0 0 0 0 0 0.25 0"/><feBlend in2="BackgroundImageFix" result="effect1_dropShadow_9002_2425"/><feBlend in="SourceGraphic" in2="effect1_dropShadow_9002_2425" result="shape"/><feGaussianBlur stdDeviation="2.5" result="effect2_foregroundBlur_9002_2425"/></filter><filter id="filter3_df_9002_2425" x="157.826" y="431" width="213.73" height="284.421" filterUnits="userSpaceOnUse" color-interpolation-filters="sRGB"><feFlood flood-opacity="0" result="BackgroundImageFix"/><feColorMatrix in="SourceAlpha" values="0 0 0 0 0 0 0 0 0 0 0 0 0 0 0 0 0 0 127 0" result="hardAlpha"/><feOffset dy="4"/><feGaussianBlur stdDeviation="25"/><feComposite in2="hardAlpha" operator="out"/><feColorMatrix values="0 0 0 0 0 0 0 0 0 0 0 0 0 0 0 0 0 0 0.25 0"/><feBlend in2="BackgroundImageFix" result="effect1_dropShadow_9002_2425"/><feBlend in="SourceGraphic" in2="effect1_dropShadow_9002_2425" result="shape"/><feGaussianBlur stdDeviation="2.5" result="effect2_foregroundBlur_9002_2425"/></filter><filter id="filter4_df_9002_2425" x="626" y="179.403" width="282.182" height="176.106" filterUnits="userSpaceOnUse" color-interpolation-filters="sRGB"><feFlood flood-opacity="0" result="BackgroundImageFix"/><feColorMatrix in="SourceAlpha" values="0 0 0 0 0 0 0 0 0 0 0 0 0 0 0 0 0 0 127 0" result="hardAlpha"/><feOffset dy="4"/><feGaussianBlur stdDeviation="25"/><feComposite in2="hardAlpha" operator="out"/><feColorMatrix values="0 0 0 0 0 0 0 0 0 0 0 0 0 0 0 0 0 0 0.25 0"/><feBlend in2="BackgroundImageFix" result="effect1_dropShadow_9002_2425"/><feBlend in="SourceGraphic" in2="effect1_dropShadow_9002_2425" result="shape"/><feGaussianBlur stdDeviation="2.5" result="effect2_foregroundBlur_9002_2425"/></filter><filter id="filter5_df_9002_2425" x="550" y="410" width="431.108" height="432.019" filterUnits="userSpaceOnUse" color-interpolation-filters="sRGB"><feFlood flood-opacity="0" result="BackgroundImageFix"/><feColorMatrix in="SourceAlpha" values="0 0 0 0 0 0 0 0 0 0 0 0 0 0 0 0 0 0 127 0" result="hardAlpha"/><feOffset dy="4"/><feGaussianBlur stdDeviation="25"/><feComposite in2="hardAlpha" operator="out"/><feColorMatrix values="0 0 0 0 0 0 0 0 0 0 0 0 0 0 0 0 0 0 0.25 0"/><feBlend in2="BackgroundImageFix" result="effect1_dropShadow_9002_2425"/><feBlend in="SourceGraphic" in2="effect1_dropShadow_9002_2425" result="shape"/><feGaussianBlur stdDeviation="2.5" result="effect2_foregroundBlur_9002_2425"/></filter><filter id="filter6_df_9002_2425" x="239.241" y="78.856" width="494.783" height="361.743" filterUnits="userSpaceOnUse" color-interpolation-filters="sRGB"><feFlood flood-opacity="0" result="BackgroundImageFix"/><feColorMatrix in="SourceAlpha" values="0 0 0 0 0 0 0 0 0 0 0 0 0 0 0 0 0 0 127 0" result="hardAlpha"/><feOffset dy="4"/><feGaussianBlur stdDeviation="25"/><feComposite in2="hardAlpha" operator="out"/><feColorMatrix values="0 0 0 0 0 0 0 0 0 0 0 0 0 0 0 0 0 0 0.25 0"/><feBlend in2="BackgroundImageFix" result="effect1_dropShadow_9002_2425"/><feBlend in="SourceGraphic" in2="effect1_dropShadow_9002_2425" result="shape"/><feGaussianBlur stdDeviation="2.5" result="effect2_foregroundBlur_9002_2425"/></filter><filter id="filter7_df_9002_2425" x="301.838" y="643.499" width="296.371" height="215.462" filterUnits="userSpaceOnUse" color-interpolation-filters="sRGB"><feFlood flood-opacity="0" result="BackgroundImageFix"/><feColorMatrix in="SourceAlpha" values="0 0 0 0 0 0 0 0 0 0 0 0 0 0 0 0 0 0 127 0" result="hardAlpha"/><feOffset dy="4"/><feGaussianBlur stdDeviation="25"/><feComposite in2="hardAlpha" operator="out"/><feColorMatrix values="0 0 0 0 0 0 0 0 0 0 0 0 0 0 0 0 0 0 0.25 0"/><feBlend in2="BackgroundImageFix" result="effect1_dropShadow_9002_2425"/><feBlend in="SourceGraphic" in2="effect1_dropShadow_9002_2425" result="shape"/><feGaussianBlur stdDeviation="2.5" result="effect2_foregroundBlur_9002_2425"/></filter><filter id="filter8_df_9002_2425" x="458" y="482" width="410.209" height="232.532" filterUnits="userSpaceOnUse" color-interpolation-filters="sRGB"><feFlood flood-opacity="0" result="BackgroundImageFix"/><feColorMatrix in="SourceAlpha" values="0 0 0 0 0 0 0 0 0 0 0 0 0 0 0 0 0 0 127 0" result="hardAlpha"/><feOffset dy="4"/><feGaussianBlur stdDeviation="25"/><feComposite in2="hardAlpha" operator="out"/><feColorMatrix values="0 0 0 0 0 0 0 0 0 0 0 0 0 0 0 0 0 0 0.25 0"/><feBlend in2="BackgroundImageFix" result="effect1_dropShadow_9002_2425"/><feBlend in="SourceGraphic" in2="effect1_dropShadow_9002_2425" result="shape"/><feGaussianBlur stdDeviation="2.5" result="effect2_foregroundBlur_9002_2425"/></filter><filter id="filter9_df_9002_2425" x="414.138" y="231.485" width="414.505" height="223.907" filterUnits="userSpaceOnUse" color-interpolation-filters="sRGB"><feFlood flood-opacity="0" result="BackgroundImageFix"/><feColorMatrix in="SourceAlpha" values="0 0 0 0 0 0 0 0 0 0 0 0 0 0 0 0 0 0 127 0" result="hardAlpha"/><feOffset dy="4"/><feGaussianBlur stdDeviation="25"/><feComposite in2="hardAlpha" operator="out"/><feColorMatrix values="0 0 0 0 0 0 0 0 0 0 0 0 0 0 0 0 0 0 0.25 0"/><feBlend in2="BackgroundImageFix" result="effect1_dropShadow_9002_2425"/><feBlend in="SourceGraphic" in2="effect1_dropShadow_9002_2425" result="shape"/><feGaussianBlur stdDeviation="2.5" result="effect2_foregroundBlur_9002_2425"/></filter><filter id="filter10_df_9002_2425" x="410" y="338" width="303" height="271" filterUnits="userSpaceOnUse" color-interpolation-filters="sRGB"><feFlood flood-opacity="0" result="BackgroundImageFix"/><feColorMatrix in="SourceAlpha" values="0 0 0 0 0 0 0 0 0 0 0 0 0 0 0 0 0 0 127 0" result="hardAlpha"/><feOffset dy="4"/><feGaussianBlur stdDeviation="25"/><feComposite in2="hardAlpha" operator="out"/><feColorMatrix values="0 0 0 0 0 0 0 0 0 0 0 0 0 0 0 0 0 0 0.25 0"/><feBlend in2="BackgroundImageFix" result="effect1_dropShadow_9002_2425"/><feBlend in="SourceGraphic" in2="effect1_dropShadow_9002_2425" result="shape"/><feGaussianBlur stdDeviation="2.5" result="effect2_foregroundBlur_9002_2425"/></filter><linearGradient id="paint0_linear_9002_2425" x1="862.93" y1="344" x2="862.93" y2="494" gradientUnits="userSpaceOnUse"><stop stop-color="#38AB43"/><stop offset="1" stop-color="#3BB144"/></linearGradient><linearGradient id="paint1_linear_9002_2425" x1="283.239" y1="549.561" x2="223.81" y2="605.918" gradientUnits="userSpaceOnUse"><stop stop-color="#38AB43"/><stop offset="1" stop-color="#3BB144"/></linearGradient><linearGradient id="paint2_linear_9002_2425" x1="900" y1="456" x2="658" y2="799" gradientUnits="userSpaceOnUse"><stop stop-color="#C7D556"/><stop offset="1" stop-color="#AACF6B"/></linearGradient><linearGradient id="paint3_linear_9002_2425" x1="311.912" y1="389.797" x2="638.801" y2="126.44" gradientUnits="userSpaceOnUse"><stop stop-color="#AACF6B"/><stop offset="1" stop-color="#C7D556"/></linearGradient><linearGradient id="paint4_linear_9002_2425" x1="529.76" y1="689.499" x2="466.65" y2="842.047" gradientUnits="userSpaceOnUse"><stop stop-color="#C7D556"/><stop offset="1" stop-color="#AACF6B"/></linearGradient><radialGradient id="paint5_radial_9002_2425" cx="0" cy="0" r="1" gradientUnits="userSpaceOnUse" gradientTransform="rotate(-167.619 333.605 221.31) scale(419.762 263.163)"><stop stop-color="#C2D45A"/><stop offset="1" stop-color="#3AB044"/></radialGradient></defs></svg>