<svg width="1280" height="872" viewBox="0 0 1280 872" fill="none" xmlns="http://www.w3.org/2000/svg">
<g style="mix-blend-mode:hard-light" opacity="0.25" filter="url(#filter0_d_9002_2425)">
<path d="M840.076 776.235C743.029 835.689 616.076 804.235 554.076 832.235C492.076 860.234 423.358 826.144 352.076 788.235C284.253 752.166 270.076 696.235 208.076 654.235C146.076 612.235 166.076 400.235 166.076 288.235C166.076 176.235 486.076 116.235 592.076 80.2349C698.076 44.2349 876.076 134.235 932.076 196.235C988.076 258.235 1072.08 510.235 1020.08 546.235C968.076 582.235 937.333 716.653 840.076 776.235Z" fill="#81BB43"/>
<g filter="url(#filter1_df_9002_2425)">
<path d="M857.83 361.976C861.106 349.883 884.403 344 884.403 344C884.403 344 888.258 356.109 884.403 361.976L879.713 366.665C879.713 366.665 882.599 375.707 884.403 381.515C886.579 388.523 893.377 393.044 889.874 399.491C886.735 405.268 879.278 401.517 874.242 405.744C870.22 409.12 868.047 411.691 866.427 416.686C862.324 429.334 886.659 432.499 884.403 445.604C883.614 450.185 882.636 452.93 879.713 456.545C875.929 461.227 869.577 459.231 866.427 464.361C862.913 470.083 869.22 475.449 866.427 481.556C864.36 486.074 862.237 488.64 857.83 490.934C851.874 494.036 845.152 495.903 840.635 490.934C836.529 486.417 838.431 480.996 840.635 475.303C842.667 470.055 848.649 469.821 850.014 464.361C850.754 461.4 850.014 456.545 850.014 456.545C850.014 456.545 842.564 450.891 840.635 445.604C838.752 440.442 840.635 431.535 840.635 431.535C840.635 431.535 845.982 422.507 844.543 416.686C843.193 411.222 833.64 411.161 835.164 405.744C836.356 401.506 844.543 399.491 844.543 399.491L866.427 387.768C866.427 387.768 855.053 372.224 857.83 361.976Z" fill="url(#paint0_linear_9002_2425)"/>
</g>
<g filter="url(#filter2_df_9002_2425)">
<path d="M421.532 563.178C428.214 573.776 416.773 594.906 416.773 594.906C416.773 594.906 405.251 589.546 403.543 582.737L403.266 576.111C403.266 576.111 394.657 572.113 389.162 569.509C382.53 566.367 374.601 568.311 372.227 561.367C370.101 555.146 377.909 552.197 378.207 545.629C378.445 540.384 378.024 537.044 375.445 532.47C368.913 520.887 350.109 536.656 341.991 526.124C339.153 522.442 337.795 519.864 337.112 515.265C336.229 509.311 341.998 505.987 340.355 500.195C338.522 493.735 330.302 494.745 327.699 488.555C325.773 483.975 325.322 480.675 326.616 475.878C328.365 469.395 331.541 463.184 338.256 463.223C344.36 463.258 347.063 468.329 349.761 473.805C352.249 478.853 348.371 483.414 351.465 488.115C353.144 490.664 357.218 493.406 357.218 493.406C357.218 493.406 366.423 491.751 371.62 493.91C376.694 496.018 381.975 503.434 381.975 503.434C381.975 503.434 385 513.481 390.259 516.363C395.194 519.068 401.706 512.078 404.662 516.867C406.974 520.613 402.915 528.003 402.915 528.003L396.729 552.046C396.729 552.046 415.869 554.198 421.532 563.178Z" fill="#86C23D"/>
</g>
<g filter="url(#filter3_df_9002_2425)">
<path d="M208.289 538.896C205.757 514.738 214.428 477 214.428 477C214.428 477 218.472 517.028 233.55 535.969C237.261 540.631 240.425 542.311 244.049 547.04C251.022 556.139 256.839 573.462 256.839 573.462L273.797 578.409C280.45 583.971 276.302 592.235 281.337 599.296C288.822 609.792 301.817 606.012 309.669 616.237C318.902 628.26 326.44 641.87 317.655 654.224C307.473 668.542 288.874 658.245 272.764 651.234C254.096 643.11 248.461 630.159 236.892 613.406C219.181 587.759 211.539 569.895 208.289 538.896Z" fill="url(#paint1_linear_9002_2425)"/>
</g>
<g filter="url(#filter4_df_9002_2425)">
<path d="M728.127 227.816C706.58 231.512 676 248.225 676 248.225C676 248.225 711.664 241.97 731.749 250.415C736.693 252.494 738.92 254.825 743.901 256.812C753.484 260.634 769.91 261.451 769.91 261.451L778.33 274.936C784.77 279.344 790.919 273.736 798.263 276.377C809.181 280.302 809.075 292.482 819.847 296.792C832.514 301.86 846.143 305.072 854.704 294.449C864.626 282.137 851.171 268.535 841.169 256.287C829.58 242.095 816.986 240.37 799.652 234.431C773.115 225.34 755.775 223.075 728.127 227.816Z" fill="#3AAF44"/>
</g>
<g filter="url(#filter5_df_9002_2425)">
<path d="M848.22 606.019C855.088 599.594 855.073 590.21 864.22 588.019C869.967 586.642 879.22 590.019 879.22 590.019C879.22 590.019 882.231 580.256 884.22 574.019C888.721 559.9 893.521 552.59 896.22 538.019C899.775 518.819 890.518 506.694 896.22 488.019C900.406 474.305 899.898 455.32 914.22 456.019C928.175 456.699 928.22 474.019 930.22 488.019C932.22 502.019 930.22 538.019 930.22 538.019C924.22 546.019 908.22 566.019 896.22 574.019C886.62 580.419 892.22 611.352 896.22 626.019C896.22 626.019 888.837 625.216 884.22 626.019C860.614 630.122 876.497 663.444 864.22 684.019C858.776 693.141 855.447 698.233 848.22 706.019C838.759 716.211 833.842 725.224 820.22 728.019C814.099 729.274 804.22 728.019 804.22 728.019C804.22 728.019 784.505 759.27 764.22 768.019C755.348 771.845 740.22 774.019 740.22 774.019L702.22 788.019L684.22 774.019C684.779 763.613 710.22 768.019 710.22 768.019L740.22 758.019L752.22 746.019L774.22 728.019L804.22 716.019L836.22 692.019V664.019H804.22L774.22 692.019L740.22 716.019V706.019C740.22 706.019 714.201 706.431 702.22 716.019C688.286 727.168 684.22 758.019 684.22 758.019L652.22 788.019H628.22C617.691 785.394 604.22 774.019 604.22 774.019C604.22 774.019 594.726 751.444 604.22 746.019C613.318 740.82 628.22 758.019 628.22 758.019L652.22 746.019C652.22 746.019 649.242 734.387 652.22 728.019L668.22 716.019L678.22 692.019C678.22 692.019 673.259 666.24 684.22 664.019C694.518 661.931 702.22 684.019 702.22 684.019H720.22C720.22 684.019 729.457 666.502 740.22 664.019H752.22C752.22 664.019 772.933 669.383 784.22 664.019C795.239 658.782 795.567 648.62 804.22 640.019L820.22 626.019C820.22 626.019 838.406 615.198 848.22 606.019Z" fill="url(#paint2_linear_9002_2425)"/>
</g>
<g filter="url(#filter6_df_9002_2425)">
<path d="M402.899 259.765C394.53 264.057 391.968 273.084 382.571 272.679C376.667 272.425 368.697 266.637 368.697 266.637C368.697 266.637 363.121 275.198 359.496 280.649C351.29 292.989 344.667 298.699 338.071 311.97C329.38 329.455 334.951 343.656 324.34 360.047C316.549 372.084 311.823 390.479 298.245 385.874C285.013 381.387 289.726 364.722 291.647 350.711C293.569 336.7 305.378 302.633 305.378 302.633C313.344 296.588 334.221 281.751 347.957 277.354C358.945 273.836 362.055 242.554 362.237 227.353C362.237 227.353 369.116 230.152 373.775 230.648C397.6 233.185 391.479 196.782 408.934 180.37C416.674 173.093 421.273 169.112 430.36 163.61C442.256 156.408 449.459 149.091 463.325 150.145C469.556 150.618 478.71 154.538 478.71 154.538C478.71 154.538 506.249 129.902 528.157 127.061C537.738 125.818 552.882 127.882 552.882 127.882L593.266 124.856L606.729 143.26C603.333 153.112 580.081 141.89 580.081 141.89L548.488 143.267L533.654 151.51L507.557 162.777L475.415 166.077L438.055 180.367L430.365 207.29L461.135 216.078L497.671 197.393L536.955 183.652L534.208 193.268C534.208 193.268 559.34 200.016 573.494 194.088C589.953 187.193 602.335 158.645 602.335 158.645L641.343 138.586L664.421 145.177C673.824 150.592 683.654 165.229 683.654 165.229C683.654 165.229 686.583 189.544 675.964 192.153C665.788 194.654 656.182 174.024 656.182 174.024L629.81 178.972C629.81 178.972 629.478 190.974 624.867 196.28L606.186 203.424L589.98 223.756C589.98 223.756 587.67 249.905 576.522 249.031C566.046 248.21 564.706 224.857 564.706 224.857L547.398 219.914C547.398 219.914 533.706 234.221 522.675 233.653L511.136 230.358C511.136 230.358 492.692 219.512 480.366 221.57C468.333 223.58 465.226 233.26 454.544 239.155L435.315 248.223C435.315 248.223 414.856 253.633 402.899 259.765Z" fill="url(#paint3_linear_9002_2425)"/>
</g>
<g filter="url(#filter7_df_9002_2425)">
<path d="M382 741V723C382 723 342.284 703.935 354 693C361.994 685.539 371.095 692.198 382 693C403.545 694.583 416.448 695.813 436 705C447.765 710.528 464 723 464 723L488 741H506C506 741 520.028 737.795 528 741C538.3 745.14 546 763 546 763C546 763 550.971 776.029 546 781C541.029 785.97 528 781 528 781H506H474C474 781 477.009 792.647 474 799C467.647 812.411 436 799 436 799L418 789C412.266 780.62 418 763 418 763C418 763 402.12 767.681 394 763C385.521 758.113 382 741 382 741Z" fill="url(#paint4_linear_9002_2425)"/>
</g>
<g filter="url(#filter8_df_9002_2425)">
<path d="M541.486 655.496C552.649 659.712 564.015 664.325 572.042 655.496C579.339 647.469 572.042 627.718 572.042 627.718C572.042 627.718 586.455 623.932 594.264 627.718C605.177 633.009 596.461 652.271 608.153 655.496C622.221 659.377 619.35 632.459 633.153 627.718C642.386 624.546 658.153 627.718 658.153 627.718C658.153 627.718 677.737 635.841 683.153 627.718C686.763 622.302 683.153 611.051 683.153 611.051L713.708 594.385H733.153L763.708 572.162H777.597C777.597 572.162 807.314 569.65 813.708 555.496C817.727 546.598 821.415 536.49 813.708 530.496C807.714 525.834 801.671 528.823 794.264 530.496C779.225 533.892 778.449 550.978 763.708 555.496C752.299 558.993 744.203 550.994 733.153 555.496C723.891 559.269 713.708 572.162 713.708 572.162H699.819C689.451 575.353 683.153 594.385 683.153 594.385L658.153 572.162H633.153C627.387 578.649 638.918 587.898 633.153 594.385C626.666 601.682 608.153 594.385 608.153 594.385H572.042C558.886 597.805 541.486 611.051 541.486 611.051C541.486 611.051 522.907 605.302 513.708 611.051C496.352 621.899 522.338 648.264 541.486 655.496Z" fill="#86C23D"/>
</g>
<g filter="url(#filter9_df_9002_2425)">
<path d="M763.975 349.05C756.199 340 748.435 330.503 737.158 334.406C726.907 337.953 723.845 358.785 723.845 358.785C723.845 358.785 709.38 355.2 704.341 348.134C697.299 338.26 714.18 325.532 705.465 317.098C694.977 306.949 684.597 331.949 670.21 329.495C660.586 327.853 643.583 279.5 643.583 279.5C643.583 279.5 630.288 274.966 621.641 279.5C615.877 282.523 610.351 306.344 610.351 306.344L583.534 320.141L566.468 310.822L529 315.68L516.81 309.024C516.81 309.024 489.525 296.985 477.129 306.344C469.337 312.226 461.256 319.331 465.147 328.285C468.173 335.249 474.91 335.522 482.212 337.604C497.039 341.832 505.909 327.208 521.012 330.308C532.701 332.707 535.972 343.608 547.829 344.953C557.767 346.08 572.883 339.645 572.883 339.645L585.072 346.301C595.701 348.471 610.351 334.786 610.351 334.786L632 328.285L643.583 358.75C637.791 333.766 646.065 361.68 654.234 358.75C663.424 355.455 676.175 370.733 676.175 370.733L707.868 388.04C721.053 391.343 742.674 388.058 742.674 388.058C742.674 388.058 756.224 402.008 767.053 401.371C787.486 400.169 777.314 364.575 763.975 349.05Z" fill="#86C23D"/>
</g>
<g filter="url(#filter10_df_9002_2425)">
<path d="M645.03 399.835C662.759 411.289 658.973 428.679 661.944 448.407C664.32 464.19 661.944 489.208 661.944 489.208C661.944 489.208 656.92 511.916 645.03 512.523C632.665 513.154 626.003 489.208 626.003 489.208C610.151 484.959 604.56 502.484 592.177 512.523C574.643 526.738 572.767 563.21 552.008 553.324C532.949 544.247 566.755 517.143 552.008 502.808C531.182 482.566 484.355 537.781 484.355 537.781C484.355 537.781 484.355 563.038 465.328 537.781C446.3 512.523 484.355 489.208 484.355 489.208V432.864C484.355 432.864 500.907 394.504 524.524 386.234C549.796 377.385 565.249 397.523 592.177 399.835C612.728 401.599 628.145 388.925 645.03 399.835Z" fill="url(#paint5_radial_9002_2425)"/>
</g>
<path d="M947 738.574L957.684 738.574L969.039 749.034L966.525 762.864L959.694 769.812L950.984 767.816L938.034 747.169L947 738.574Z" fill="#7BE34A" fill-opacity="0.3"/>
<path d="M957.684 754L947 738.574M957.684 754L969.039 749.034M957.684 754L950.984 767.816M947 738.574L957.684 738.574L969.039 749.034M947 738.574L938.034 747.169L950.984 767.816M969.039 749.034L966.525 762.864L959.694 769.812L950.984 767.816" stroke="#7BE34A"/>
<path d="M1103 665.273L1117.45 646L1151.18 655.636V674.909L1156 683.742L1152.39 688.561L1148.77 693.379H1120.67L1103 674.909V665.273Z" fill="#7BE34A" fill-opacity="0.3"/>
<path d="M1103 665.273L1117.45 646M1103 665.273V674.909L1120.67 693.379H1148.77M1103 665.273L1123.88 686.955L1148.77 693.379M1117.45 646L1151.18 655.636V674.909L1156 683.742L1152.39 688.561M1117.45 646L1145.56 671.697L1152.39 688.561M1148.77 693.379L1152.39 688.561" stroke="#7BE34A"/>
<path d="M173 756.091L179.818 747L195.727 751.545V760.636L198 764.803L196.295 767.076L194.591 769.348H181.333L173 760.636V756.091Z" fill="#7BE34A" fill-opacity="0.3"/>
<path d="M173 756.091L179.818 747M173 756.091V760.636L181.333 769.348H194.591M173 756.091L182.848 766.318L194.591 769.348M179.818 747L195.727 751.545V760.636L198 764.803L196.295 767.076M179.818 747L193.076 759.121L196.295 767.076M194.591 769.348L196.295 767.076" stroke="#7BE34A"/>
<path d="M1145 215.632L1151.63 206.053L1156.79 185.421L1162.32 183.211L1165.08 182.105L1167.84 181L1191.42 192.789L1201 217.842L1198.79 228.158L1174.47 242.895L1145 215.632Z" fill="#7BE34A" fill-opacity="0.3"/>
<path d="M1151.63 206.053L1145 215.632L1174.47 242.895M1151.63 206.053L1156.79 185.421L1162.32 183.211M1151.63 206.053L1159 209M1174.47 242.895L1198.79 228.158M1174.47 242.895L1159 209M1198.79 228.158L1201 217.842L1191.42 192.789L1167.84 181L1165.08 182.105M1198.79 228.158L1184.79 198.684L1165.08 182.105M1159 209L1162.32 183.211M1162.32 183.211L1165.08 182.105" stroke="#7BE34A"/>
<path d="M84.2553 296.426L85 306.106L76.0638 321.745L59.6809 322.489L50 316.532V306.106L70.1064 286L84.2553 296.426Z" fill="#7BE34A" fill-opacity="0.3"/>
<path d="M84.2553 296.426L65.6383 306.851L76.0638 321.745M84.2553 296.426L85 306.106L76.0638 321.745M84.2553 296.426L70.1064 286L50 306.106V316.532L59.6809 322.489L76.0638 321.745" stroke="#7BE34A"/>
</g>
<defs>
<filter id="filter0_d_9002_2425" x="-25" y="-21" width="1330" height="910" filterUnits="userSpaceOnUse" color-interpolation-filters="sRGB">
<feFlood flood-opacity="0" result="BackgroundImageFix"/>
<feColorMatrix in="SourceAlpha" type="matrix" values="0 0 0 0 0 0 0 0 0 0 0 0 0 0 0 0 0 0 127 0" result="hardAlpha"/>
<feOffset dy="4"/>
<feGaussianBlur stdDeviation="12.5"/>
<feComposite in2="hardAlpha" operator="out"/>
<feColorMatrix type="matrix" values="0 0 0 0 0.368627 0 0 0 0 0.92549 0 0 0 0 0.211765 0 0 0 1 0"/>
<feBlend mode="normal" in2="BackgroundImageFix" result="effect1_dropShadow_9002_2425"/>
<feBlend mode="normal" in="SourceGraphic" in2="effect1_dropShadow_9002_2425" result="shape"/>
</filter>
<filter id="filter1_df_9002_2425" x="785" y="298" width="155.859" height="250" filterUnits="userSpaceOnUse" color-interpolation-filters="sRGB">
<feFlood flood-opacity="0" result="BackgroundImageFix"/>
<feColorMatrix in="SourceAlpha" type="matrix" values="0 0 0 0 0 0 0 0 0 0 0 0 0 0 0 0 0 0 127 0" result="hardAlpha"/>
<feOffset dy="4"/>
<feGaussianBlur stdDeviation="25"/>
<feComposite in2="hardAlpha" operator="out"/>
<feColorMatrix type="matrix" values="0 0 0 0 0 0 0 0 0 0 0 0 0 0 0 0 0 0 0.25 0"/>
<feBlend mode="normal" in2="BackgroundImageFix" result="effect1_dropShadow_9002_2425"/>
<feBlend mode="normal" in="SourceGraphic" in2="effect1_dropShadow_9002_2425" result="shape"/>
<feGaussianBlur stdDeviation="2.5" result="effect2_foregroundBlur_9002_2425"/>
</filter>
<filter id="filter2_df_9002_2425" x="275.882" y="417.223" width="197.745" height="231.683" filterUnits="userSpaceOnUse" color-interpolation-filters="sRGB">
<feFlood flood-opacity="0" result="BackgroundImageFix"/>
<feColorMatrix in="SourceAlpha" type="matrix" values="0 0 0 0 0 0 0 0 0 0 0 0 0 0 0 0 0 0 127 0" result="hardAlpha"/>
<feOffset dy="4"/>
<feGaussianBlur stdDeviation="25"/>
<feComposite in2="hardAlpha" operator="out"/>
<feColorMatrix type="matrix" values="0 0 0 0 0 0 0 0 0 0 0 0 0 0 0 0 0 0 0.25 0"/>
<feBlend mode="normal" in2="BackgroundImageFix" result="effect1_dropShadow_9002_2425"/>
<feBlend mode="normal" in="SourceGraphic" in2="effect1_dropShadow_9002_2425" result="shape"/>
<feGaussianBlur stdDeviation="2.5" result="effect2_foregroundBlur_9002_2425"/>
</filter>
<filter id="filter3_df_9002_2425" x="157.826" y="431" width="213.73" height="284.421" filterUnits="userSpaceOnUse" color-interpolation-filters="sRGB">
<feFlood flood-opacity="0" result="BackgroundImageFix"/>
<feColorMatrix in="SourceAlpha" type="matrix" values="0 0 0 0 0 0 0 0 0 0 0 0 0 0 0 0 0 0 127 0" result="hardAlpha"/>
<feOffset dy="4"/>
<feGaussianBlur stdDeviation="25"/>
<feComposite in2="hardAlpha" operator="out"/>
<feColorMatrix type="matrix" values="0 0 0 0 0 0 0 0 0 0 0 0 0 0 0 0 0 0 0.25 0"/>
<feBlend mode="normal" in2="BackgroundImageFix" result="effect1_dropShadow_9002_2425"/>
<feBlend mode="normal" in="SourceGraphic" in2="effect1_dropShadow_9002_2425" result="shape"/>
<feGaussianBlur stdDeviation="2.5" result="effect2_foregroundBlur_9002_2425"/>
</filter>
<filter id="filter4_df_9002_2425" x="626" y="179.403" width="282.182" height="176.106" filterUnits="userSpaceOnUse" color-interpolation-filters="sRGB">
<feFlood flood-opacity="0" result="BackgroundImageFix"/>
<feColorMatrix in="SourceAlpha" type="matrix" values="0 0 0 0 0 0 0 0 0 0 0 0 0 0 0 0 0 0 127 0" result="hardAlpha"/>
<feOffset dy="4"/>
<feGaussianBlur stdDeviation="25"/>
<feComposite in2="hardAlpha" operator="out"/>
<feColorMatrix type="matrix" values="0 0 0 0 0 0 0 0 0 0 0 0 0 0 0 0 0 0 0.25 0"/>
<feBlend mode="normal" in2="BackgroundImageFix" result="effect1_dropShadow_9002_2425"/>
<feBlend mode="normal" in="SourceGraphic" in2="effect1_dropShadow_9002_2425" result="shape"/>
<feGaussianBlur stdDeviation="2.5" result="effect2_foregroundBlur_9002_2425"/>
</filter>
<filter id="filter5_df_9002_2425" x="550" y="410" width="431.108" height="432.019" filterUnits="userSpaceOnUse" color-interpolation-filters="sRGB">
<feFlood flood-opacity="0" result="BackgroundImageFix"/>
<feColorMatrix in="SourceAlpha" type="matrix" values="0 0 0 0 0 0 0 0 0 0 0 0 0 0 0 0 0 0 127 0" result="hardAlpha"/>
<feOffset dy="4"/>
<feGaussianBlur stdDeviation="25"/>
<feComposite in2="hardAlpha" operator="out"/>
<feColorMatrix type="matrix" values="0 0 0 0 0 0 0 0 0 0 0 0 0 0 0 0 0 0 0.25 0"/>
<feBlend mode="normal" in2="BackgroundImageFix" result="effect1_dropShadow_9002_2425"/>
<feBlend mode="normal" in="SourceGraphic" in2="effect1_dropShadow_9002_2425" result="shape"/>
<feGaussianBlur stdDeviation="2.5" result="effect2_foregroundBlur_9002_2425"/>
</filter>
<filter id="filter6_df_9002_2425" x="239.241" y="78.8555" width="494.783" height="361.743" filterUnits="userSpaceOnUse" color-interpolation-filters="sRGB">
<feFlood flood-opacity="0" result="BackgroundImageFix"/>
<feColorMatrix in="SourceAlpha" type="matrix" values="0 0 0 0 0 0 0 0 0 0 0 0 0 0 0 0 0 0 127 0" result="hardAlpha"/>
<feOffset dy="4"/>
<feGaussianBlur stdDeviation="25"/>
<feComposite in2="hardAlpha" operator="out"/>
<feColorMatrix type="matrix" values="0 0 0 0 0 0 0 0 0 0 0 0 0 0 0 0 0 0 0.25 0"/>
<feBlend mode="normal" in2="BackgroundImageFix" result="effect1_dropShadow_9002_2425"/>
<feBlend mode="normal" in="SourceGraphic" in2="effect1_dropShadow_9002_2425" result="shape"/>
<feGaussianBlur stdDeviation="2.5" result="effect2_foregroundBlur_9002_2425"/>
</filter>
<filter id="filter7_df_9002_2425" x="301.838" y="643.499" width="296.371" height="215.462" filterUnits="userSpaceOnUse" color-interpolation-filters="sRGB">
<feFlood flood-opacity="0" result="BackgroundImageFix"/>
<feColorMatrix in="SourceAlpha" type="matrix" values="0 0 0 0 0 0 0 0 0 0 0 0 0 0 0 0 0 0 127 0" result="hardAlpha"/>
<feOffset dy="4"/>
<feGaussianBlur stdDeviation="25"/>
<feComposite in2="hardAlpha" operator="out"/>
<feColorMatrix type="matrix" values="0 0 0 0 0 0 0 0 0 0 0 0 0 0 0 0 0 0 0.25 0"/>
<feBlend mode="normal" in2="BackgroundImageFix" result="effect1_dropShadow_9002_2425"/>
<feBlend mode="normal" in="SourceGraphic" in2="effect1_dropShadow_9002_2425" result="shape"/>
<feGaussianBlur stdDeviation="2.5" result="effect2_foregroundBlur_9002_2425"/>
</filter>
<filter id="filter8_df_9002_2425" x="458" y="482" width="410.209" height="232.532" filterUnits="userSpaceOnUse" color-interpolation-filters="sRGB">
<feFlood flood-opacity="0" result="BackgroundImageFix"/>
<feColorMatrix in="SourceAlpha" type="matrix" values="0 0 0 0 0 0 0 0 0 0 0 0 0 0 0 0 0 0 127 0" result="hardAlpha"/>
<feOffset dy="4"/>
<feGaussianBlur stdDeviation="25"/>
<feComposite in2="hardAlpha" operator="out"/>
<feColorMatrix type="matrix" values="0 0 0 0 0 0 0 0 0 0 0 0 0 0 0 0 0 0 0.25 0"/>
<feBlend mode="normal" in2="BackgroundImageFix" result="effect1_dropShadow_9002_2425"/>
<feBlend mode="normal" in="SourceGraphic" in2="effect1_dropShadow_9002_2425" result="shape"/>
<feGaussianBlur stdDeviation="2.5" result="effect2_foregroundBlur_9002_2425"/>
</filter>
<filter id="filter9_df_9002_2425" x="414.138" y="231.485" width="414.505" height="223.907" filterUnits="userSpaceOnUse" color-interpolation-filters="sRGB">
<feFlood flood-opacity="0" result="BackgroundImageFix"/>
<feColorMatrix in="SourceAlpha" type="matrix" values="0 0 0 0 0 0 0 0 0 0 0 0 0 0 0 0 0 0 127 0" result="hardAlpha"/>
<feOffset dy="4"/>
<feGaussianBlur stdDeviation="25"/>
<feComposite in2="hardAlpha" operator="out"/>
<feColorMatrix type="matrix" values="0 0 0 0 0 0 0 0 0 0 0 0 0 0 0 0 0 0 0.25 0"/>
<feBlend mode="normal" in2="BackgroundImageFix" result="effect1_dropShadow_9002_2425"/>
<feBlend mode="normal" in="SourceGraphic" in2="effect1_dropShadow_9002_2425" result="shape"/>
<feGaussianBlur stdDeviation="2.5" result="effect2_foregroundBlur_9002_2425"/>
</filter>
<filter id="filter10_df_9002_2425" x="410" y="338" width="303" height="271" filterUnits="userSpaceOnUse" color-interpolation-filters="sRGB">
<feFlood flood-opacity="0" result="BackgroundImageFix"/>
<feColorMatrix in="SourceAlpha" type="matrix" values="0 0 0 0 0 0 0 0 0 0 0 0 0 0 0 0 0 0 127 0" result="hardAlpha"/>
<feOffset dy="4"/>
<feGaussianBlur stdDeviation="25"/>
<feComposite in2="hardAlpha" operator="out"/>
<feColorMatrix type="matrix" values="0 0 0 0 0 0 0 0 0 0 0 0 0 0 0 0 0 0 0.25 0"/>
<feBlend mode="normal" in2="BackgroundImageFix" result="effect1_dropShadow_9002_2425"/>
<feBlend mode="normal" in="SourceGraphic" in2="effect1_dropShadow_9002_2425" result="shape"/>
<feGaussianBlur stdDeviation="2.5" result="effect2_foregroundBlur_9002_2425"/>
</filter>
<linearGradient id="paint0_linear_9002_2425" x1="862.93" y1="344" x2="862.93" y2="494" gradientUnits="userSpaceOnUse">
<stop stop-color="#38AB43"/>
<stop offset="1" stop-color="#3BB144"/>
</linearGradient>
<linearGradient id="paint1_linear_9002_2425" x1="283.239" y1="549.561" x2="223.81" y2="605.918" gradientUnits="userSpaceOnUse">
<stop stop-color="#38AB43"/>
<stop offset="1" stop-color="#3BB144"/>
</linearGradient>
<linearGradient id="paint2_linear_9002_2425" x1="900" y1="456" x2="658" y2="799" gradientUnits="userSpaceOnUse">
<stop stop-color="#C7D556"/>
<stop offset="1" stop-color="#AACF6B"/>
</linearGradient>
<linearGradient id="paint3_linear_9002_2425" x1="311.912" y1="389.797" x2="638.801" y2="126.44" gradientUnits="userSpaceOnUse">
<stop stop-color="#AACF6B"/>
<stop offset="1" stop-color="#C7D556"/>
</linearGradient>
<linearGradient id="paint4_linear_9002_2425" x1="529.76" y1="689.499" x2="466.65" y2="842.047" gradientUnits="userSpaceOnUse">
<stop stop-color="#C7D556"/>
<stop offset="1" stop-color="#AACF6B"/>
</linearGradient>
<radialGradient id="paint5_radial_9002_2425" cx="0" cy="0" r="1" gradientUnits="userSpaceOnUse" gradientTransform="translate(612 509) rotate(-167.619) scale(419.762 263.163)">
<stop stop-color="#C2D45A"/>
<stop offset="1" stop-color="#3AB044"/>
</radialGradient>
</defs>
</svg>
