<svg aria-hidden="true" style="position: absolute; width: 0; height: 0; overflow: hidden;" version="1.1" xmlns="http://www.w3.org/2000/svg" xmlns:xlink="http://www.w3.org/1999/xlink">
<defs>
<symbol id="icon-burger" viewBox="0 0 48 32">
<path fill="#86e543" style="fill: var(--color1, #86e543)" d="M45.467 13.333h-42.933c-1.399 0-2.533 0.681-2.533 1.52v0.16c0 0.839 1.134 1.52 2.533 1.52h42.933c1.399 0 2.533-0.681 2.533-1.52v-0.16c0-0.839-1.134-1.52-2.533-1.52zM45.467 26.667h-42.933c-1.399 0-2.533 0.681-2.533 1.52v0.16c0 0.839 1.134 1.52 2.533 1.52h42.933c1.399 0 2.533-0.681 2.533-1.52v-0.16c0-0.839-1.134-1.52-2.533-1.52zM45.467 0h-42.933c-1.399 0-2.533 0.681-2.533 1.52v0.16c0 0.839 1.134 1.52 2.533 1.52h42.933c1.399 0 2.533-0.681 2.533-1.52v-0.16c0-0.839-1.134-1.52-2.533-1.52z"></path>
</symbol>
<symbol id="icon-ellipse" viewBox="0 0 32 32">
<path fill="#fff" style="fill: var(--color2, #fff)" d="M32 16c0 8.837-7.163 16-16 16s-16-7.163-16-16c0-8.837 7.163-16 16-16s16 7.163 16 16z"></path>
</symbol>
<symbol id="icon-Facebook" viewBox="0 0 35 32">
<path d="M26.299 10.363h-5.904v-3.323c0-1.248 0.963-1.539 1.643-1.539h4.165v-5.483l-5.736-0.019c-6.371 0-7.819 4.091-7.819 6.707v3.653h-3.683v5.653h3.68v15.987h7.749v-15.989h5.227l0.677-5.648z"></path>
</symbol>
<symbol id="icon-instagram" viewBox="0 0 35 32">
<path d="M34.299 2c0 1.105-0.895 2-2 2s-2-0.895-2-2c0-1.105 0.895-2 2-2s2 0.895 2 2z"></path>
<path d="M18.299 30v0c-7.732 0-14-6.268-14-14s6.268-14 14-14v0c7.732 0 14 6.268 14 14s-6.268 14-14 14zM18.299 25.333c5.155 0 9.333-4.179 9.333-9.333s-4.179-9.333-9.333-9.333v0c-5.155 0-9.333 4.179-9.333 9.333s4.179 9.333 9.333 9.333v0z"></path>
</symbol>
<symbol id="icon-oval" viewBox="0 0 80 32">
<path fill="#fff" style="fill: var(--color2, #fff)" d="M16 0h48c8.837 0 16 7.163 16 16s-7.163 16-16 16h-48c-8.837 0-16-7.163-16-16s7.163-16 16-16z"></path>
</symbol>
<symbol id="icon-trukytnuk" viewBox="0 0 45 32">
<path fill="#fff" style="fill: var(--color2, #fff)" d="M24.899 28.874c-0.591 0.735-1.491 1.201-2.499 1.201s-1.908-0.466-2.494-1.195l-0.005-0.006-18.288-22.877c-0.436-0.542-0.699-1.239-0.699-1.997 0-1.767 1.432-3.199 3.199-3.2h36.576c1.765 0.003 3.195 1.434 3.195 3.2 0 0.758-0.264 1.455-0.704 2.003l0.005-0.006-18.282 22.877z"></path>
</symbol>
<symbol id="icon-Vector" viewBox="0 0 32 32">
<path fill="none" stroke="#86e543" style="stroke: var(--color1, #86e543)" stroke-linejoin="miter" stroke-linecap="round" stroke-miterlimit="4" stroke-width="3.5556" d="M29.629 30.222l-27.259-28.444M29.629 1.778l-27.259 28.444"></path>
</symbol>
<symbol id="icon-Youtube" viewBox="0 0 35 32">
<path d="M30.8 5.973c1.379 0.349 2.461 1.387 2.829 2.701 0.669 2.384 0.669 7.36 0.669 7.36s0 4.973-0.667 7.357c-0.371 1.315-1.453 2.307-2.832 2.659-2.493 0.64-12.501 0.64-12.501 0.64s-10.005 0-12.501-0.64c-1.379-0.352-2.461-1.344-2.829-2.659-0.667-2.384-0.667-7.36-0.667-7.36s0-4.973 0.667-7.357c0.402-1.338 1.465-2.359 2.8-2.696l0.027-0.006c2.499-0.64 12.509-0.64 12.509-0.64s10.005 0 12.499 0.64zM15.027 11.517v9.032l8.36-4.517-8.36-4.512z"></path>
</symbol>
</defs>
</svg>
